<svg width="169" height="169" viewBox="0 0 169 169" fill="none" xmlns="http://www.w3.org/2000/svg">
<g filter="url(#filter0_d_1_15)">
<rect x="4" width="161" height="161" rx="47" fill="white"/>
</g>
<path d="M83.5295 24.0144C85.622 24.0196 87.6662 24.6439 89.4019 25.808L131.952 54.0783C133.599 55.201 134.941 56.7122 135.859 58.4774C136.777 60.2423 137.242 62.2063 137.212 64.1938L137.157 118.798C137.15 125.35 132.155 130.681 126.022 130.681H41.1967C39.7817 130.675 38.3821 130.389 37.0789 129.84C35.7757 129.291 34.5949 128.489 33.6049 127.482C32.4653 126.336 31.5653 124.976 30.9573 123.481C30.3492 121.986 30.0449 120.386 30.0623 118.773L30.1179 64.1454C30.0937 62.1669 30.5587 60.2135 31.472 58.4567C32.3852 56.6999 33.7187 55.194 35.3546 54.072L77.6304 25.8237C79.372 24.6492 81.4264 24.0194 83.5295 24.0144ZM83.5285 12C79.0321 12.0045 74.639 13.3437 70.9103 15.8467L28.6342 44.095C25.3598 46.3185 22.6832 49.3083 20.8388 52.8018C18.9945 56.2956 18.0389 60.1864 18.0557 64.1334L18 118.761C17.9867 131.976 28.3761 149 41.1967 149L126.022 138.351C138.824 138.351 149.205 132.006 149.219 118.811L149.275 64.2065C149.3 60.2405 148.343 56.3297 146.489 52.82C144.635 49.3104 141.941 46.31 138.645 44.0843L96.0959 15.8142C92.3781 13.3318 88.0041 12.0042 83.5285 12Z" fill="#346633"/>
<path d="M93.0714 109.333C89.1505 110.278 85.3417 110.481 81.6454 109.941C77.9368 109.351 74.5025 108.138 71.3426 106.302C68.1706 104.417 65.4603 102.022 63.2119 99.1186C61.0013 96.1531 59.4339 92.7675 58.5093 88.9617C57.5847 85.1559 57.4305 81.4558 58.0473 77.8615C58.7021 74.205 59.9882 70.8471 61.9054 67.7874C63.8104 64.6775 66.2827 62.0408 69.3223 59.8766C72.3998 57.6505 75.8739 56.0708 79.7444 55.1374C84.1177 54.0829 88.4526 53.9655 92.7491 54.7851C97.0335 55.5544 100.81 57.1886 104.077 59.6872L98.1588 68.5086C95.8015 66.6918 93.2516 65.5041 90.5084 64.9463C87.7657 64.3884 84.9866 64.4489 82.1715 65.1275C79.8089 65.6973 77.7319 66.6749 75.9402 68.0611C74.1361 69.3974 72.6688 71.0231 71.5379 72.9393C70.395 74.805 69.6517 76.8927 69.3079 79.2016C69.0025 81.4488 69.1478 83.7992 69.7441 86.2529C70.34 88.7066 71.3211 90.8821 72.6864 92.7791C74.0522 94.6763 75.6775 96.2192 77.5626 97.4079C79.4859 98.5345 81.5625 99.3062 83.7922 99.7228C86.06 100.077 88.4004 99.9635 90.8131 99.3817C93.3267 98.7758 95.4791 97.7796 97.2709 96.3934C99.0506 94.9574 100.418 93.2494 101.374 91.2696C102.368 89.2276 102.835 87.1006 102.777 84.8882L87.1687 88.6515L84.8692 79.1872L112.165 72.6063L112.968 75.9112C113.916 79.8171 114.114 83.586 113.56 87.2183C113.043 90.7883 111.902 94.0851 110.136 97.1083C108.357 100.082 106.024 102.632 103.135 104.76C100.246 106.888 96.8918 108.412 93.0714 109.333Z" fill="#346633"/>
<defs>
<filter id="filter0_d_1_15" x="0" y="0" width="169" height="169" filterUnits="userSpaceOnUse" color-interpolation-filters="sRGB">
<feFlood flood-opacity="0" result="BackgroundImageFix"/>
<feColorMatrix in="SourceAlpha" type="matrix" values="0 0 0 0 0 0 0 0 0 0 0 0 0 0 0 0 0 0 127 0" result="hardAlpha"/>
<feOffset dy="4"/>
<feGaussianBlur stdDeviation="2"/>
<feComposite in2="hardAlpha" operator="out"/>
<feColorMatrix type="matrix" values="0 0 0 0 0 0 0 0 0 0 0 0 0 0 0 0 0 0 0.25 0"/>
<feBlend mode="normal" in2="BackgroundImageFix" result="effect1_dropShadow_1_15"/>
<feBlend mode="normal" in="SourceGraphic" in2="effect1_dropShadow_1_15" result="shape"/>
</filter>
</defs>
</svg>
